<?xml version="1.0" encoding="utf-8"?>
<!-- Generator: Adobe Illustrator 17.1.0, SVG Export Plug-In . SVG Version: 6.00 Build 0)  -->
<!DOCTYPE svg PUBLIC "-//W3C//DTD SVG 1.1//EN" "http://www.w3.org/Graphics/SVG/1.1/DTD/svg11.dtd">
<svg version="1.1" id="Layer_1" xmlns="http://www.w3.org/2000/svg" xmlns:xlink="http://www.w3.org/1999/xlink" x="0px" y="0px"
	 viewBox="0 0 851 315" enable-background="new 0 0 851 315" xml:space="preserve">
<rect id="XMLID_1_" display="none" fill="#021126" width="851" height="315"/>
<g id="XMLID_3_">
	<path fill="#F2F2F2" d="M174.9,189l-15,16.8v36.5h-51.3V87.4h51.3v53.7l46.2-53.7h59l-55.2,62.3l58.6,92.6h-61.2L174.9,189z"/>
	<path fill="#F2F2F2" d="M264,242.3V87.4h51.3v154.9H264z"/>
	<path fill="#F2F2F2" d="M466,160.7v63.9c-17.2,11.5-45.7,19.9-67.8,19.9c-48.6,0-84-33.6-84-79.6c0-45.7,36.7-79.1,87.3-79.1
		c24.1,0,50.4,9.3,67,23.9l-29,35.1c-10.4-9.9-25.4-16.4-38.2-16.4c-19.9,0-34.5,15.5-34.5,36.5c0,21.4,14.8,36.9,34.9,36.9
		c5.3,0,12.8-2,20.3-5.1v-36H466z"/>
	<path fill="#F2F2F2" d="M632,164.7c0,46-35.8,79.8-85.1,79.8s-85.1-33.6-85.1-79.8c0-46,35.8-78.9,85.1-78.9S632,119,632,164.7z
		 M514.4,164.9c0,21.2,15.5,36.9,33.1,36.9c17.7,0,31.8-15.7,31.8-36.9c0-21.2-14.1-36.5-31.8-36.5
		C529.6,128.5,514.4,143.7,514.4,164.9z"/>
	<path fill="#F2F2F2" d="M703.6,87.4c40.2,0,63.4,20.1,63.4,55.5c0,37.6-23.2,59.2-63.4,59.2h-21.4v40.2h-51.3V87.4H703.6z
		 M682.1,163.2h18.8c11,0,17.5-6.9,17.5-18.8c0-11.5-6.4-18.1-17.5-18.1h-18.8V163.2z"/>
</g>
<g>
</g>
<g>
</g>
<g>
</g>
<g>
</g>
<g>
</g>
</svg>
