<?xml version="1.0" encoding="utf-8"?>
<!-- Generator: Adobe Illustrator 17.1.0, SVG Export Plug-In . SVG Version: 6.00 Build 0)  -->
<!DOCTYPE svg PUBLIC "-//W3C//DTD SVG 1.1//EN" "http://www.w3.org/Graphics/SVG/1.1/DTD/svg11.dtd">
<svg version="1.1" id="Layer_1" xmlns="http://www.w3.org/2000/svg" xmlns:xlink="http://www.w3.org/1999/xlink" x="0px" y="0px"
	 viewBox="0 0 85 85" enable-background="new 0 0 85 85" xml:space="preserve">
<path fill="#646464" d="M42.7,0.7C19.9,0.7,1.4,19.2,1.4,42c0,22.8,18.5,41.3,41.3,41.3c22.8,0,41.3-18.5,41.3-41.3
	C84.1,19.2,65.5,0.7,42.7,0.7z M42.7,78c-19.9,0-36-16.1-36-36c0-19.9,16.1-36,36-36c19.9,0,36,16.1,36,36
	C78.7,61.9,62.6,78,42.7,78z"/>
<path fill="#646464" d="M36.9,65.3h9.3V42h6.5l0.7-7.8h-7.2c0,0,0-2.9,0-4.4c0-1.8,0.4-2.6,2.1-2.6c1.4,0,5,0,5,0v-8.1
	c0,0-5.3,0-6.4,0c-6.9,0-10,3-10,8.9c0,5.1,0,6.2,0,6.2H32v7.9h4.8V65.3z"/>
<g>
</g>
<g>
</g>
<g>
</g>
<g>
</g>
<g>
</g>
<g>
</g>
<g>
</g>
<g>
</g>
<g>
</g>
<g>
</g>
<g>
</g>
<g>
</g>
<g>
</g>
<g>
</g>
<g>
</g>
</svg>
