<?xml version="1.0" encoding="utf-8"?>
<!-- Generator: Adobe Illustrator 17.1.0, SVG Export Plug-In . SVG Version: 6.00 Build 0)  -->
<!DOCTYPE svg PUBLIC "-//W3C//DTD SVG 1.1//EN" "http://www.w3.org/Graphics/SVG/1.1/DTD/svg11.dtd">
<svg version="1.1" id="Layer_1" xmlns="http://www.w3.org/2000/svg" xmlns:xlink="http://www.w3.org/1999/xlink" x="0px" y="0px"
	 viewBox="0 0 85 85" enable-background="new 0 0 85 85" xml:space="preserve">
<path fill="#646464" d="M43.1,1.7C20.3,1.7,1.8,20.2,1.8,43c0,22.8,18.5,41.3,41.3,41.3c22.8,0,41.3-18.5,41.3-41.3
	C84.4,20.2,65.9,1.7,43.1,1.7z M43.1,79c-19.9,0-36-16.1-36-36c0-19.9,16.1-36,36-36c19.9,0,36,16.1,36,36C79.1,62.9,63,79,43.1,79z
	"/>
<path fill="#646464" d="M43.5,32.8c2.9,0,5.5,1.2,7.4,3.1h12.9v-5.3h0c0-4.4-3.6-8-8-8H33.9v10.1h-1.6V22.6h-0.9c-0.1,0-0.1,0-0.2,0
	v10.1h-1.6v-9.9c-0.4,0.1-0.8,0.2-1.2,0.4v9.5h-1.6v-8.6c-2,1.4-3.4,3.8-3.4,6.5v5.3h12.8C38,34,40.6,32.8,43.5,32.8z M53.2,27.3
	c0-0.7,0.6-1.3,1.3-1.3h4.3c0.7,0,1.3,0.6,1.3,1.3v4.4c0,0.7-0.6,1.3-1.3,1.3h-4.3c-0.7,0-1.3-0.6-1.3-1.3V27.3z"/>
<path fill="#646464" d="M48.8,37.2c-0.6-0.5-1.2-0.9-2-1.3c-1-0.5-2.1-0.7-3.3-0.7c-1.2,0-2.3,0.3-3.3,0.7c-0.7,0.3-1.4,0.8-2,1.3
	c-1.7,1.5-2.7,3.6-2.7,6c0,4.4,3.6,8,8,8c4.4,0,8-3.6,8-8C51.5,40.8,50.4,38.6,48.8,37.2z M43.5,49.1c-3.3,0-5.9-2.6-5.9-5.9
	s2.6-5.9,5.9-5.9c3.3,0,5.9,2.6,5.9,5.9S46.8,49.1,43.5,49.1z"/>
<path fill="#646464" d="M31.3,63.3h24.5c4.4,0,8-3.6,8-8V37.2H51.9c1.2,1.7,1.9,3.8,1.9,6c0,5.7-4.6,10.4-10.4,10.4
	c-5.7,0-10.4-4.6-10.4-10.4c0-2.2,0.7-4.3,1.9-6H23.3v18.2C23.3,59.8,26.9,63.3,31.3,63.3z"/>
<g>
</g>
<g>
</g>
<g>
</g>
<g>
</g>
<g>
</g>
<g>
</g>
<g>
</g>
<g>
</g>
<g>
</g>
<g>
</g>
<g>
</g>
<g>
</g>
<g>
</g>
<g>
</g>
<g>
</g>
</svg>
