<?xml version="1.0" encoding="utf-8"?>
<!-- Generator: Adobe Illustrator 17.1.0, SVG Export Plug-In . SVG Version: 6.00 Build 0)  -->
<!DOCTYPE svg PUBLIC "-//W3C//DTD SVG 1.1//EN" "http://www.w3.org/Graphics/SVG/1.1/DTD/svg11.dtd">
<svg version="1.1" id="Layer_1" xmlns="http://www.w3.org/2000/svg" xmlns:xlink="http://www.w3.org/1999/xlink" x="0px" y="0px"
	 viewBox="0 0 85 85" enable-background="new 0 0 85 85" xml:space="preserve">
<path fill="#646464" d="M43.4,1.7C20.5,1.7,2,20.2,2,43c0,22.8,18.5,41.3,41.3,41.3c22.8,0,41.3-18.5,41.3-41.3
	C84.7,20.2,66.2,1.7,43.4,1.7z M43.4,79c-19.9,0-36-16.1-36-36c0-19.9,16.1-36,36-36c19.9,0,36,16.1,36,36
	C79.4,62.9,63.3,79,43.4,79z"/>
<rect x="25.8" y="34.9" fill="#646464" width="7.9" height="25.5"/>
<ellipse fill="#646464" cx="29.7" cy="26.8" rx="4.7" ry="4.7"/>
<path fill="#646464" d="M46.4,47c0-3.6,1.7-5.7,4.8-5.7c2.9,0,4.3,2.1,4.3,5.7c0,3.7,0,13.4,0,13.4h7.9c0,0,0-9.3,0-16.2
	c0-6.8-3.9-10.1-9.3-10.1c-5.4,0-7.7,4.2-7.7,4.2v-3.4h-7.6v25.5h7.6C46.4,60.4,46.4,50.9,46.4,47z"/>
<g>
</g>
<g>
</g>
<g>
</g>
<g>
</g>
<g>
</g>
<g>
</g>
<g>
</g>
<g>
</g>
<g>
</g>
<g>
</g>
<g>
</g>
<g>
</g>
<g>
</g>
<g>
</g>
<g>
</g>
</svg>
