<?xml version="1.0" encoding="utf-8"?>
<!-- Generator: Adobe Illustrator 17.1.0, SVG Export Plug-In . SVG Version: 6.00 Build 0)  -->
<!DOCTYPE svg PUBLIC "-//W3C//DTD SVG 1.1//EN" "http://www.w3.org/Graphics/SVG/1.1/DTD/svg11.dtd">
<svg version="1.1" id="Layer_1" xmlns="http://www.w3.org/2000/svg" xmlns:xlink="http://www.w3.org/1999/xlink" x="0px" y="0px"
	 viewBox="0 0 85 85" enable-background="new 0 0 85 85" xml:space="preserve">
<path fill="#646464" d="M43.6,1.7C20.8,1.7,2.3,20.2,2.3,43s18.5,41.3,41.3,41.3C66.5,84.3,85,65.8,85,43S66.5,1.7,43.6,1.7z
	 M43.6,79c-19.9,0-36-16.1-36-36s16.1-36,36-36c19.9,0,36,16.1,36,36S63.5,79,43.6,79z"/>
<path fill="#646464" d="M49.6,37.6c0.7,0,1.7-0.4,2.8-1.6v1.4h2.4v-13h-2.4v9.9c-0.3,0.4-0.9,1-1.4,1c-0.5,0-0.6-0.4-0.6-0.9v-10
	h-2.4v10.9C47.9,36.5,48.3,37.6,49.6,37.6z"/>
<path fill="#646464" d="M38.8,34.2c0,2.3,1.2,3.5,3.5,3.5c1.9,0,3.5-1.3,3.5-3.5v-6.4c0-2-1.5-3.5-3.5-3.5c-2.1,0-3.5,1.4-3.5,3.5
	V34.2z M41.3,28c0-0.7,0.3-1.2,1-1.2c0.7,0,1.1,0.5,1.1,1.2v6c0,0.7-0.4,1.2-1,1.2c-0.7,0-1.1-0.5-1.1-1.2V28z"/>
<polygon fill="#646464" points="33.1,37.4 35.8,37.4 35.8,30.3 39,19.8 36.2,19.8 34.5,26.8 32.6,19.8 29.9,19.8 33.1,30.3 "/>
<path fill="#646464" d="M58,40.3H29.6c-3.1,0-5.5,2.5-5.5,5.5v14c0,3.1,2.5,5.5,5.5,5.5H58c3.1,0,5.5-2.5,5.5-5.5v-14
	C63.6,42.8,61.1,40.3,58,40.3z M33.4,61.3h-2.6V46.9h-2.7v-2.4h7.9v2.4h-2.7V61.3z M42.6,61.3h-2.3v-1.4c-0.4,0.5-0.9,0.9-1.3,1.1
	c-1.2,0.7-2.9,0.7-2.9-1.8V48.9h2.3v9.5c0,0.5,0.1,0.8,0.6,0.8c0.4,0,1.1-0.6,1.4-0.9v-9.4h2.3V61.3z M51.4,58.7
	c0,1.5-0.6,2.7-2.1,2.7c-0.8,0-1.5-0.3-2.2-1.1v0.9h-2.3V44.5h2.3v5.4c0.5-0.6,1.2-1.2,2-1.2c1.7,0,2.2,1.4,2.2,3.1V58.7z
	 M59.9,55.4h-4.4v2.3c0,0.9,0.1,1.7,1,1.7c1,0,1-0.7,1-1.7v-0.9h2.4v0.9c0,2.4-1,3.8-3.4,3.8c-2.2,0-3.3-1.6-3.3-3.8v-5.5
	c0-2.1,1.4-3.6,3.5-3.6c2.2,0,3.3,1.4,3.3,3.6V55.4z"/>
<path fill="#646464" d="M56.6,50.7c-0.9,0-1,0.6-1,1.4v1.3h2v-1.3C57.6,51.4,57.4,50.7,56.6,50.7z"/>
<path fill="#646464" d="M47.6,50.8c-0.2,0.1-0.3,0.2-0.5,0.4v7.7c0.2,0.2,0.4,0.3,0.5,0.4c0.4,0.2,0.9,0.2,1.2-0.1
	c0.1-0.2,0.2-0.5,0.2-0.9V52c0-0.4-0.1-0.7-0.2-0.9C48.6,50.7,48,50.6,47.6,50.8z"/>
<g>
</g>
<g>
</g>
<g>
</g>
<g>
</g>
<g>
</g>
<g>
</g>
<g>
</g>
<g>
</g>
<g>
</g>
<g>
</g>
<g>
</g>
<g>
</g>
<g>
</g>
<g>
</g>
<g>
</g>
</svg>
